<svg width="65" height="85" viewBox="0 0 65 85" fill="none" xmlns="http://www.w3.org/2000/svg">
<path d="M20.0924 1.26043H52.3975C52.7868 1.25907 53.1704 1.35485 53.5133 1.5391C53.8563 1.72335 54.1479 1.99025 54.3617 2.31562C54.5755 2.64099 54.7048 3.01456 54.7378 3.40249C54.7709 3.79043 54.7066 4.18047 54.5509 4.5373L41.9115 34.0381H63.2179C63.3963 34.0399 63.5704 34.0927 63.7199 34.1902C63.8693 34.2876 63.9878 34.4258 64.0613 34.5884C64.1348 34.7509 64.1604 34.9311 64.135 35.1077C64.1096 35.2843 64.0342 35.4499 63.9178 35.5851L20.4669 83.3383C20.3483 83.5156 20.1701 83.6445 19.9647 83.7016C19.7592 83.7588 19.5401 83.7404 19.347 83.6498C19.1539 83.5592 18.9997 83.4024 18.9124 83.2078C18.825 83.0133 18.8103 82.7938 18.8708 82.5893L23.182 48.0818H3.23545C2.84807 48.0871 2.46542 47.9963 2.1217 47.8175C1.77799 47.6388 1.48391 47.3776 1.26576 47.0575C1.04761 46.7373 0.912173 46.3681 0.871563 45.9828C0.830952 45.5975 0.886428 45.2082 1.03304 44.8496L17.8855 2.70939C18.0642 2.27303 18.3705 1.9008 18.7643 1.64146C19.158 1.38212 19.621 1.25222 20.0924 1.26043Z" stroke="#BA1E1E" stroke-width="1.5" stroke-linecap="round" stroke-linejoin="round"/>
</svg>
