<svg width="31" height="30" viewBox="0 0 31 30" fill="none" xmlns="http://www.w3.org/2000/svg">
<path d="M0.916504 1.16667L12.9228 13.1729C13.2596 13.5142 13.6608 13.7852 14.1032 13.9701C14.5456 14.1551 15.0203 14.2503 15.4998 14.2503C15.9793 14.2503 16.4541 14.1551 16.8965 13.9701C17.3388 13.7852 17.7401 13.5142 18.0769 13.1729L30.0832 1.16667M0.916504 15.75L12.9228 27.7563C13.2597 28.0973 13.661 28.368 14.1034 28.5528C14.5458 28.7376 15.0204 28.8328 15.4998 28.8328C15.9793 28.8328 16.4539 28.7376 16.8963 28.5528C17.3387 28.368 17.74 28.0973 18.0769 27.7563L30.0832 15.75" stroke="#212121" stroke-width="1.5" stroke-linecap="round" stroke-linejoin="round"/>
</svg>
