<svg width="51" height="51" viewBox="0 0 51 51" fill="none" xmlns="http://www.w3.org/2000/svg">
<path d="M45.5813 23.8574H42.6275C42.2415 19.8402 40.4697 16.0825 37.616 13.2289C34.7623 10.3752 31.0047 8.60341 26.9875 8.21736V5.26361C26.9875 4.84092 26.8196 4.43555 26.5207 4.13666C26.2218 3.83777 25.8164 3.66986 25.3937 3.66986C24.9711 3.66986 24.5657 3.83777 24.2668 4.13666C23.9679 4.43555 23.8 4.84092 23.8 5.26361V8.21736C19.8004 8.62271 16.0654 10.4035 13.2325 13.2558C10.3996 16.1081 8.64433 19.8551 8.26625 23.8574H5.3125C5.10321 23.8574 4.89596 23.8986 4.7026 23.9787C4.50924 24.0588 4.33354 24.1762 4.18555 24.3242C4.03756 24.4722 3.92016 24.6478 3.84007 24.8412C3.75997 25.0346 3.71875 25.2418 3.71875 25.4511C3.71875 25.6604 3.75997 25.8676 3.84007 26.061C3.92016 26.2544 4.03756 26.4301 4.18555 26.5781C4.33354 26.7261 4.50924 26.8434 4.7026 26.9235C4.89596 27.0036 5.10321 27.0449 5.3125 27.0449H8.26625C8.6523 31.062 10.4241 34.8197 13.2778 37.6734C16.1314 40.527 19.8891 42.2988 23.9062 42.6849V45.6386C23.9062 46.0613 24.0742 46.4667 24.373 46.7656C24.6719 47.0644 25.0773 47.2324 25.5 47.2324C25.9227 47.2324 26.3281 47.0644 26.627 46.7656C26.9258 46.4667 27.0938 46.0613 27.0938 45.6386V42.6849C31.1095 42.2949 34.8649 40.5218 37.7178 37.6689C40.5707 34.816 42.3438 31.0606 42.7337 27.0449H45.6875C45.8968 27.0449 46.104 27.0036 46.2974 26.9235C46.4908 26.8434 46.6665 26.7261 46.8145 26.5781C46.9624 26.4301 47.0798 26.2544 47.1599 26.061C47.24 25.8676 47.2812 25.6604 47.2812 25.4511C47.2812 25.2418 47.24 25.0346 47.1599 24.8412C47.0798 24.6478 46.9624 24.4722 46.8145 24.3242C46.6665 24.1762 46.4908 24.0588 46.2974 23.9787C46.104 23.8986 45.8968 23.8574 45.6875 23.8574H45.5813ZM25.3937 39.5611C22.6031 39.5611 19.875 38.7336 17.5547 37.1831C15.2343 35.6327 13.4258 33.429 12.3578 30.8508C11.2899 28.2725 11.0104 25.4355 11.5549 22.6984C12.0993 19.9613 13.4432 17.4472 15.4165 15.4738C17.3898 13.5005 19.904 12.1567 22.641 11.6122C25.3781 11.0678 28.2151 11.3472 30.7934 12.4152C33.3717 13.4831 35.5754 15.2916 37.1258 17.612C38.6762 19.9324 39.5037 22.6604 39.5037 25.4511C39.5038 29.1953 38.0178 32.7864 35.3723 35.4359C32.7268 38.0854 29.1379 39.5767 25.3937 39.5824V39.5611Z" fill="#BA1E1E"/>
<path d="M35.0201 25.4724C35.0201 27.3814 34.4537 29.2474 33.3927 30.8344C32.3317 32.4214 30.8237 33.6579 29.0596 34.3875C27.2955 35.1171 25.3546 35.3069 23.4826 34.9329C21.6106 34.5589 19.8917 33.638 18.5433 32.2866C17.1949 30.9353 16.2777 29.2143 15.9079 27.3414C15.538 25.4686 15.7321 23.5281 16.4656 21.7657C17.199 20.0032 18.4389 18.4979 20.0282 17.4404C21.6175 16.3829 23.4849 15.8206 25.3939 15.8249C26.6598 15.8248 27.9133 16.0745 29.0826 16.5596C30.2519 17.0447 31.314 17.7557 32.2082 18.6518C33.1023 19.548 33.8109 20.6117 34.2935 21.782C34.776 22.9524 35.0229 24.2064 35.0201 25.4724Z" fill="#BA1E1E"/>
</svg>
