<svg width="154" height="104" viewBox="0 0 154 104" fill="none" xmlns="http://www.w3.org/2000/svg">
<mask id="mask0_27_7831" style="mask-type:luminance" maskUnits="userSpaceOnUse" x="0" y="0" width="154" height="104">
<path d="M0.00976562 46.7682C0.00976562 46.3661 0.00976562 45.9636 0.00976562 45.5615C1.74145 43.3912 3.47314 41.2205 5.16084 39.1049C5.70072 39.1335 6.3211 39.1663 6.77342 39.1904C6.62445 36.7927 6.48958 34.6186 6.37961 32.8504C8.68853 30.4863 10.8613 28.6368 12.5582 26.4225C14.3865 24.0368 17.5914 23.6127 19.3778 21.403C19.0674 20.2286 18.8164 19.2787 18.5595 18.3081C19.023 17.9707 19.4081 17.6906 19.8779 17.3487C19.1214 16.1722 18.2752 15.2555 17.8989 14.1758C17.3523 12.6084 17.0258 10.9353 16.8519 9.28159C16.7834 8.63174 17.3802 7.91176 17.5939 7.4113C18.8492 7.4113 19.7488 7.4113 20.6489 7.4113C20.8232 7.5831 20.9979 7.7549 21.1722 7.9267C22.1138 6.93989 23.0549 5.95308 24.148 4.80734C25.5809 4.80734 27.4906 4.69281 29.3808 4.83473C32.0453 5.03516 34.7186 5.2995 37.3441 5.77589C39.302 6.13111 41.2702 6.68427 43.0907 7.4777C45.4714 8.51555 48.2048 9.04381 49.8705 11.3726C51.7923 9.69739 52.6865 9.59945 54.7776 10.822C55.6955 11.3585 56.6379 11.854 57.4372 12.2951C58.5323 11.4967 59.4498 10.8278 60.398 10.136C61.3885 11.3191 62.14 12.2171 62.5397 12.6947C65.0482 12.4603 67.0716 12.2711 68.6277 12.1254C70.2876 12.9429 71.1118 14.8767 72.8634 13.4284C72.4621 12.2184 72.1023 11.1328 71.8442 10.3547C72.9223 8.7969 74.1004 7.68062 74.5258 6.32739C75.0333 4.71439 75.9894 4.21974 77.3787 4.27119C79.649 4.35502 81.9136 4.59819 84.757 4.81896C85.2972 4.1687 86.1575 3.13292 87.1551 1.93199C87.4966 1.93199 88.0079 1.84525 88.4784 1.94734C90.291 2.34032 91.9157 2.25069 93.6473 1.27384C95.8886 0.00983101 98.0863 1.06054 99.6918 2.64284C101.215 4.14421 102.29 6.10122 103.855 8.26241C102.911 8.82843 102.058 9.3401 101.212 9.84678C101.923 11.7208 102.478 13.1844 102.988 14.5273C104.394 15.036 105.611 15.4767 106.815 15.9129C107.684 15.4303 108.438 15.0115 109.273 14.5476C110.212 16.3436 111.096 18.0006 111.942 19.6767C112.161 20.1107 112.486 20.6714 112.374 21.0614C111.837 22.9201 113.014 24.0688 113.938 25.4295C117.024 23.8895 119.571 25.854 121.737 26.5706C124.36 25.7145 126.477 25.0232 128.922 24.2252C130.363 25.8693 131.842 27.5558 133.298 29.2161C135.613 27.7367 135.607 27.7546 138.296 28.7563C139.586 29.2368 140.94 30.0514 142.205 29.9514C143.463 29.8518 144.416 30.1402 145.248 30.7917C147.235 32.3475 149.531 32.7251 151.665 32.7778C152.286 33.7559 152.777 34.5294 153.268 35.3029C153.268 35.705 153.268 36.1076 153.268 36.5097C152.295 37.8285 151.321 39.1468 150.325 40.4967C151.337 40.993 152.302 41.4665 153.268 41.94C153.268 42.1413 153.268 42.3421 153.268 42.5434C152.359 42.9019 151.45 43.2605 150.343 43.697C150.397 46.0931 151.874 47.9758 152.426 49.61C151.969 51.6674 151.609 53.2933 151.187 55.193C150.639 55.3524 149.834 55.8699 149.159 55.7346C146.096 55.12 144.024 56.9397 141.814 58.4684C141.078 58.9772 140.373 59.5312 139.556 60.137C139.466 61.0371 139.33 62.0202 139.279 63.0078C139.229 63.9569 139.268 64.9109 139.268 65.5039C137.933 66.055 137.085 66.4832 136.19 66.753C135.202 67.0505 134.171 67.2028 132.992 67.4538C132.51 67.9406 131.928 69.0532 131.263 69.1054C129.081 69.2768 128.263 70.8475 127.461 72.3078C127.173 72.3314 127.035 72.3825 126.995 72.3402C126.66 71.992 126.343 71.6264 125.991 71.2326C125.705 71.3135 125.399 71.3467 125.149 71.482C124.631 71.7621 124.162 72.1343 123.637 72.3983C123.118 72.6593 122.569 72.968 122.01 73.024C118.058 73.4208 114.831 76.0596 113.916 79.8358C113.317 80.0823 112.637 80.362 111.957 80.6421C112.471 79.2254 114.223 78.4606 113.247 76.6982C111.375 76.9991 111.132 78.6552 110.384 80.15C108.465 80.15 106.556 80.15 104.422 80.15C103.424 80.2558 102.189 80.3873 100.58 80.5583C104.82 82.6236 108.853 84.257 112.03 87.3083C112.375 90.4554 114.345 91.768 117.15 90.3865C119.799 89.0827 122.722 89.2404 125.429 88.3673C125.612 88.3079 125.91 88.6022 126.088 88.6964C125.579 90.3413 125.095 91.9082 124.534 93.7233C122.752 94.2263 120.891 95.045 118.696 93.9537C117.489 93.3532 115.953 93.2328 114.703 94.3002C114.233 95.1749 113.764 96.0493 113.269 96.9697C111.004 97.0518 108.857 97.3905 107.139 98.8819C106.8 99.8907 106.484 100.83 106.214 101.632C104.475 102.804 102.911 103.95 100.809 103.416C99.8213 102.594 98.8349 101.773 97.9066 100.999C97.9996 100.406 98.0365 99.9123 98.161 99.4421C98.31 98.8794 98.5689 98.3461 98.7187 97.7834C99.1901 96.0186 98.8739 94.2616 97.6357 93.7308C94.9848 92.595 92.6742 90.3567 89.0644 91.324C89.4885 88.2996 92.0397 88.1278 93.5565 87.0224C95.2143 85.8139 97.1958 85.0491 99.1229 84.0457C99.1229 83.1992 99.1229 82.3448 99.1229 81.4829C98.0759 81.348 97.0315 81.4974 96.355 81.0675C94.9591 80.1807 93.6411 80.6002 92.3385 80.9534C90.1973 81.5343 88.2626 81.4704 86.3704 80.1251C85.4172 79.4474 84.2212 79.1113 83.0128 78.5652C83.5921 78.1403 84.0789 77.7834 84.491 77.4813C83.7706 75.606 81.504 78.1311 80.9923 75.8649C83.2705 73.5776 85.2645 77.8788 87.7954 76.1828C86.2874 74.9367 84.9462 73.8287 83.6037 72.719C83.4236 73.3307 83.2444 73.944 83.0568 74.586C79.959 74.6835 76.85 73.9262 75.5715 75.2446C72.6057 79.274 70.547 82.0709 68.6568 84.6387C66.6106 85.589 64.7602 86.4484 62.9688 87.2805C63.2812 89.0445 65.3399 90.3089 63.4804 92.2668C62.8526 91.3319 62.3243 90.5446 61.6549 89.5483C60.6997 89.8948 59.639 90.0363 58.9008 90.5998C57.4791 91.6858 55.8495 91.5489 54.2896 91.663C52.6899 91.78 51.7151 90.6899 51.3744 89.1487C52.0525 88.1876 52.5483 87.4423 53.0874 86.7298C54.073 85.4272 54.8867 83.8868 56.1391 82.9232C57.4264 81.9327 57.887 81.0613 57.4583 79.5188C57.2002 78.5901 57.2629 77.5726 57.1691 76.4476C58.0111 76.1073 58.692 75.8322 59.3767 75.5554C59.7531 76.2521 60.017 76.7401 60.1017 76.8966C62.8098 77.0817 65.2059 77.2456 67.4252 77.397C67.1803 76.4351 67.0538 75.4857 66.694 74.6341C66.2089 73.4863 65.8001 72.0957 64.9038 71.3758C63.0194 69.8619 62.465 68.129 62.9841 66.1791C61.999 65.2267 60.6864 64.5403 60.3992 63.5548C59.8627 61.7135 59.9212 59.6984 59.7187 57.6169C59.2054 57.3704 58.5011 57.1816 58.0048 56.7521C57.4944 56.3106 57.1869 55.6337 57.0579 55.447C55.5407 55.3781 54.6489 55.3374 54.1182 55.3134C52.3313 53.9456 50.7274 52.9057 49.3584 51.616C48.0932 50.4237 46.7981 50.2067 45.2265 50.6594C44.4705 50.8773 43.6393 50.8678 42.9114 51.1441C40.5079 52.0562 37.8678 52.682 35.8473 54.1473C34.5385 55.0963 33.3786 55.8362 31.886 55.7823C28.9646 55.6773 26.3722 56.3911 23.999 58.5908C22.5897 57.5132 21.2709 56.5048 19.9032 55.459C16.1975 55.13 12.5582 54.2535 9.07819 52.5164C8.23123 52.7663 7.29131 53.0435 6.65142 53.2319C4.98115 52.1073 3.58145 51.1653 2.19834 50.2341C1.48209 49.0991 0.745929 47.9339 0.00976562 46.7682Z" fill="white"/>
</mask>
<g mask="url(#mask0_27_7831)">
<path d="M154.037 0.712891H-3.20703V61.6012H154.037V0.712891Z" fill="#015AB9"/>
</g>
<mask id="mask1_27_7831" style="mask-type:luminance" maskUnits="userSpaceOnUse" x="0" y="0" width="154" height="104">
<path d="M0.00976562 46.7682C0.00976562 46.3661 0.00976562 45.9636 0.00976562 45.5615C1.74145 43.3912 3.47314 41.2205 5.16084 39.1049C5.70072 39.1335 6.3211 39.1663 6.77342 39.1904C6.62445 36.7927 6.48958 34.6186 6.37961 32.8504C8.68853 30.4863 10.8613 28.6368 12.5582 26.4225C14.3865 24.0368 17.5914 23.6127 19.3778 21.403C19.0674 20.2286 18.8164 19.2787 18.5595 18.3081C19.023 17.9707 19.4081 17.6906 19.8779 17.3487C19.1214 16.1722 18.2752 15.2555 17.8989 14.1758C17.3523 12.6084 17.0258 10.9353 16.8519 9.28159C16.7834 8.63174 17.3802 7.91176 17.5939 7.4113C18.8492 7.4113 19.7488 7.4113 20.6489 7.4113C20.8232 7.5831 20.9979 7.7549 21.1722 7.9267C22.1138 6.93989 23.0549 5.95308 24.148 4.80734C25.5809 4.80734 27.4906 4.69281 29.3808 4.83473C32.0453 5.03516 34.7186 5.2995 37.3441 5.77589C39.302 6.13111 41.2702 6.68427 43.0907 7.4777C45.4714 8.51555 48.2048 9.04381 49.8705 11.3726C51.7923 9.69739 52.6865 9.59945 54.7776 10.822C55.6955 11.3585 56.6379 11.854 57.4372 12.2951C58.5323 11.4967 59.4498 10.8278 60.398 10.136C61.3885 11.3191 62.14 12.2171 62.5397 12.6947C65.0482 12.4603 67.0716 12.2711 68.6277 12.1254C70.2876 12.9429 71.1118 14.8767 72.8634 13.4284C72.4621 12.2184 72.1023 11.1328 71.8442 10.3547C72.9223 8.7969 74.1004 7.68062 74.5258 6.32739C75.0333 4.71439 75.9894 4.21974 77.3787 4.27119C79.649 4.35502 81.9136 4.59819 84.757 4.81896C85.2972 4.1687 86.1575 3.13292 87.1551 1.93199C87.4966 1.93199 88.0079 1.84525 88.4784 1.94734C90.291 2.34032 91.9157 2.25069 93.6473 1.27384C95.8886 0.00983101 98.0863 1.06054 99.6918 2.64284C101.215 4.14421 102.29 6.10122 103.855 8.26241C102.911 8.82843 102.058 9.3401 101.212 9.84678C101.923 11.7208 102.478 13.1844 102.988 14.5273C104.394 15.036 105.611 15.4767 106.815 15.9129C107.684 15.4303 108.438 15.0115 109.273 14.5476C110.212 16.3436 111.096 18.0006 111.942 19.6767C112.161 20.1107 112.486 20.6714 112.374 21.0614C111.837 22.9201 113.014 24.0688 113.938 25.4295C117.024 23.8895 119.571 25.854 121.737 26.5706C124.36 25.7145 126.477 25.0232 128.922 24.2252C130.363 25.8693 131.842 27.5558 133.298 29.2161C135.613 27.7367 135.607 27.7546 138.296 28.7563C139.586 29.2368 140.94 30.0514 142.205 29.9514C143.463 29.8518 144.416 30.1402 145.248 30.7917C147.235 32.3475 149.531 32.7251 151.665 32.7778C152.286 33.7559 152.777 34.5294 153.268 35.3029C153.268 35.705 153.268 36.1076 153.268 36.5097C152.295 37.8285 151.321 39.1468 150.325 40.4967C151.337 40.993 152.302 41.4665 153.268 41.94C153.268 42.1413 153.268 42.3421 153.268 42.5434C152.359 42.9019 151.45 43.2605 150.343 43.697C150.397 46.0931 151.874 47.9758 152.426 49.61C151.969 51.6674 151.609 53.2933 151.187 55.193C150.639 55.3524 149.834 55.8699 149.159 55.7346C146.096 55.12 144.024 56.9397 141.814 58.4684C141.078 58.9772 140.373 59.5312 139.556 60.137C139.466 61.0371 139.33 62.0202 139.279 63.0078C139.229 63.9569 139.268 64.9109 139.268 65.5039C137.933 66.055 137.085 66.4832 136.19 66.753C135.202 67.0505 134.171 67.2028 132.992 67.4538C132.51 67.9406 131.928 69.0532 131.263 69.1054C129.081 69.2768 128.263 70.8475 127.461 72.3078C127.173 72.3314 127.035 72.3825 126.995 72.3402C126.66 71.992 126.343 71.6264 125.991 71.2326C125.705 71.3135 125.399 71.3467 125.149 71.482C124.631 71.7621 124.162 72.1343 123.637 72.3983C123.118 72.6593 122.569 72.968 122.01 73.024C118.058 73.4208 114.831 76.0596 113.916 79.8358C113.317 80.0823 112.637 80.362 111.957 80.6421C112.471 79.2254 114.223 78.4606 113.247 76.6982C111.375 76.9991 111.132 78.6552 110.384 80.15C108.465 80.15 106.556 80.15 104.422 80.15C103.424 80.2558 102.189 80.3873 100.58 80.5583C104.82 82.6236 108.853 84.257 112.03 87.3083C112.375 90.4554 114.345 91.768 117.15 90.3865C119.799 89.0827 122.722 89.2404 125.429 88.3673C125.612 88.3079 125.91 88.6022 126.088 88.6964C125.579 90.3413 125.095 91.9082 124.534 93.7233C122.752 94.2263 120.891 95.045 118.696 93.9537C117.489 93.3532 115.953 93.2328 114.703 94.3002C114.233 95.1749 113.764 96.0493 113.269 96.9697C111.004 97.0518 108.857 97.3905 107.139 98.8819C106.8 99.8907 106.484 100.83 106.214 101.632C104.475 102.804 102.911 103.95 100.809 103.416C99.8213 102.594 98.8349 101.773 97.9066 100.999C97.9996 100.406 98.0365 99.9123 98.161 99.4421C98.31 98.8794 98.5689 98.3461 98.7187 97.7834C99.1901 96.0186 98.8739 94.2616 97.6357 93.7308C94.9848 92.595 92.6742 90.3567 89.0644 91.324C89.4885 88.2996 92.0397 88.1278 93.5565 87.0224C95.2143 85.8139 97.1958 85.0491 99.1229 84.0457C99.1229 83.1992 99.1229 82.3448 99.1229 81.4829C98.0759 81.348 97.0315 81.4974 96.355 81.0675C94.9591 80.1807 93.6411 80.6002 92.3385 80.9534C90.1973 81.5343 88.2626 81.4704 86.3704 80.1251C85.4172 79.4474 84.2212 79.1113 83.0128 78.5652C83.5921 78.1403 84.0789 77.7834 84.491 77.4813C83.7706 75.606 81.504 78.1311 80.9923 75.8649C83.2705 73.5776 85.2645 77.8788 87.7954 76.1828C86.2874 74.9367 84.9462 73.8287 83.6037 72.719C83.4236 73.3307 83.2444 73.944 83.0568 74.586C79.959 74.6835 76.85 73.9262 75.5715 75.2446C72.6057 79.274 70.547 82.0709 68.6568 84.6387C66.6106 85.589 64.7602 86.4484 62.9688 87.2805C63.2812 89.0445 65.3399 90.3089 63.4804 92.2668C62.8526 91.3319 62.3243 90.5446 61.6549 89.5483C60.6997 89.8948 59.639 90.0363 58.9008 90.5998C57.4791 91.6858 55.8495 91.5489 54.2896 91.663C52.6899 91.78 51.7151 90.6899 51.3744 89.1487C52.0525 88.1876 52.5483 87.4423 53.0874 86.7298C54.073 85.4272 54.8867 83.8868 56.1391 82.9232C57.4264 81.9327 57.887 81.0613 57.4583 79.5188C57.2002 78.5901 57.2629 77.5726 57.1691 76.4476C58.0111 76.1073 58.692 75.8322 59.3767 75.5554C59.7531 76.2521 60.017 76.7401 60.1017 76.8966C62.8098 77.0817 65.2059 77.2456 67.4252 77.397C67.1803 76.4351 67.0538 75.4857 66.694 74.6341C66.2089 73.4863 65.8001 72.0957 64.9038 71.3758C63.0194 69.8619 62.465 68.129 62.9841 66.1791C61.999 65.2267 60.6864 64.5403 60.3992 63.5548C59.8627 61.7135 59.9212 59.6984 59.7187 57.6169C59.2054 57.3704 58.5011 57.1816 58.0048 56.7521C57.4944 56.3106 57.1869 55.6337 57.0579 55.447C55.5407 55.3781 54.6489 55.3374 54.1182 55.3134C52.3313 53.9456 50.7274 52.9057 49.3584 51.616C48.0932 50.4237 46.7981 50.2067 45.2265 50.6594C44.4705 50.8773 43.6393 50.8678 42.9114 51.1441C40.5079 52.0562 37.8678 52.682 35.8473 54.1473C34.5385 55.0963 33.3786 55.8362 31.886 55.7823C28.9646 55.6773 26.3722 56.3911 23.999 58.5908C22.5897 57.5132 21.2709 56.5048 19.9032 55.459C16.1975 55.13 12.5582 54.2535 9.07819 52.5164C8.23123 52.7663 7.29131 53.0435 6.65142 53.2319C4.98115 52.1073 3.58145 51.1653 2.19834 50.2341C1.48209 49.0991 0.745929 47.9339 0.00976562 46.7682Z" fill="white"/>
</mask>
<g mask="url(#mask1_27_7831)">
<path d="M154.037 103.552H-3.20703V49.6644C-3.20703 49.6644 -2.44597 49.6644 -1.03008 49.6644C-0.852886 49.6644 -0.665731 49.6644 -0.468618 49.6644C2.77274 47.4758 5.26258 50.0852 9.41232 49.2154C9.82729 48.7805 10.6572 47.9107 11.0722 47.9107C13.1471 48.7805 14.807 50.955 17.2968 48.7805C17.7118 48.3456 18.5417 50.0852 19.7867 50.5201C23.1065 50.955 24.7663 47.0409 28.5011 49.6503C28.5011 50.0852 30.576 48.7805 31.4059 49.2154C35.1407 50.955 37.6305 49.6503 41.3653 49.6503C42.1952 49.2154 43.4402 50.5201 44.6851 50.5201C45.515 50.0852 46.345 48.7805 47.5899 48.7805C50.4947 49.6503 52.5696 49.6503 55.4744 49.6503C56.3044 49.2154 57.1343 51.3899 57.9642 50.955C60.8691 49.6503 63.7739 48.3456 67.0937 50.5201C67.9236 51.3899 69.1685 49.6503 70.7948 49.6744C70.9733 49.6644 71.1442 49.6644 71.3148 49.6644C71.4853 49.6644 71.6563 49.6644 71.8269 49.6644C71.9974 49.6644 72.1684 49.6644 72.3385 49.6636C74.5632 47.9107 77.468 50.955 79.5429 48.7805C80.3728 47.4758 82.4477 50.0852 84.1072 49.6644C84.286 49.6644 84.4562 49.6644 84.6259 49.6644C85.8148 49.6644 87.0012 49.6644 88.1835 49.6644C88.3524 49.6644 88.5213 49.6644 88.6777 49.6275C89.0873 48.7805 89.9172 48.3456 89.9172 47.4758C92.4071 47.4758 93.237 51.8248 94.8969 50.5201C98.6317 48.3456 101.122 50.955 103.196 50.0852C105.686 48.7805 106.931 48.7805 109.421 49.6503C110.251 50.0852 109.836 50.955 109.836 51.3899C112.326 52.2596 113.571 47.4758 115.231 49.2154C118.55 51.3899 121.87 49.2154 124.695 49.6665C124.834 49.6644 124.97 49.6644 125.107 49.6644C125.651 49.6644 126.189 49.6644 126.722 49.6644C126.855 49.6644 126.988 49.6644 127.12 49.664C129.34 48.3456 131.83 48.7805 133.074 50.955C135.149 49.6503 137.224 48.7805 139.581 49.6403C139.807 49.6594 140.017 49.664 140.222 49.664C140.426 49.664 140.628 49.664 140.828 49.664C141.789 49.6503 142.204 49.6503 143.034 49.6503C142.619 50.0852 143.449 50.955 143.449 50.955C145.109 51.3899 146.769 49.6503 148.463 49.6644C148.6 49.6644 148.735 49.6644 148.867 49.6644C152.179 49.6644 154.036 49.6644 154.036 49.6644V103.552H154.037Z" fill="#FED502"/>
</g>
</svg>
