<svg width="45" height="45" viewBox="0 0 45 45" fill="none" xmlns="http://www.w3.org/2000/svg">
<path d="M22.5 30C24.4891 30 26.3968 29.2098 27.8033 27.8033C29.2098 26.3968 30 24.4891 30 22.5C30 20.5109 29.2098 18.6032 27.8033 17.1967C26.3968 15.7902 24.4891 15 22.5 15C20.5109 15 18.6032 15.7902 17.1967 17.1967C15.7902 18.6032 15 20.5109 15 22.5C15 24.4891 15.7902 26.3968 17.1967 27.8033C18.6032 29.2098 20.5109 30 22.5 30Z" stroke="#1E1E1E" stroke-width="1.5" stroke-linecap="round" stroke-linejoin="round"/>
<path d="M5.625 30V15C5.625 12.5136 6.61272 10.129 8.37087 8.37087C10.129 6.61272 12.5136 5.625 15 5.625H30C32.4864 5.625 34.871 6.61272 36.6291 8.37087C38.3873 10.129 39.375 12.5136 39.375 15V30C39.375 32.4864 38.3873 34.871 36.6291 36.6291C34.871 38.3873 32.4864 39.375 30 39.375H15C12.5136 39.375 10.129 38.3873 8.37087 36.6291C6.61272 34.871 5.625 32.4864 5.625 30Z" stroke="#1E1E1E" stroke-width="1.5"/>
<path d="M32.8125 12.2062L32.8312 12.1856" stroke="#1E1E1E" stroke-width="1.5" stroke-linecap="round" stroke-linejoin="round"/>
</svg>
