<svg width="185" height="58" viewBox="0 0 185 58" fill="none" xmlns="http://www.w3.org/2000/svg">
<path d="M62.2284 11.064L56.5939 13.6949C56.8801 14.1159 57.1762 14.6221 57.4591 15.1982L65.2335 12.1915L75 22.3392L55.0914 30.9835V32.8627L64.1066 29.4801V46.7687L38.1878 56.5405L11.5178 46.017V29.4801L21.6599 32.111L20.533 30.2318L1 22.3392L11.5178 12.1915L18.759 15.1982C19.0964 14.5956 19.4501 14.089 19.7817 13.6949L13.7716 11.064L38.9391 0.540527L62.2284 11.064Z" fill="#BA1E1E"/>
<path fill-rule="evenodd" clip-rule="evenodd" d="M38.8483 0L63.3277 11.0612L57.2247 13.9108C57.3507 14.1185 57.4766 14.3399 57.6008 14.5739L65.2647 11.6099L75.7609 22.5158L55.4929 31.3161V32.1457L64.5081 28.7631V47.1192L38.0852 57.0811L10.9193 46.3619V28.8385L20.5042 31.3249L20.0919 30.6373L0 22.5188L11.3081 11.6086L18.4492 14.5738C18.5966 14.3322 18.7461 14.1073 18.895 13.9003L12.4022 11.0581L38.8483 0ZM20.0452 14.0461C19.7415 14.4105 19.4132 14.8822 19.0968 15.4472C17.4932 18.3111 16.9378 24.3314 20.845 29.951L20.8546 29.9649L21.6607 31.309L26.5616 26.4054L26.6914 26.3708C27.8672 26.0571 28.8067 26.0283 29.5411 26.2495C30.296 26.4768 30.7906 26.9556 31.0746 27.5496C31.3503 28.1258 31.4189 28.7885 31.387 29.406C31.3734 29.6699 31.3412 29.9322 31.2957 30.1854C31.9907 29.9843 32.5995 29.9545 33.1312 30.071C33.8974 30.239 34.4318 30.6949 34.7927 31.2227C35.2888 31.9482 35.4797 32.8396 35.5485 33.4397C36.6609 33.3504 37.5103 33.5202 38.1434 33.8928C38.8854 34.3295 39.255 35.0001 39.4196 35.6589C39.5817 36.3076 39.5518 36.9645 39.4889 37.4426C39.4758 37.5427 39.461 37.6363 39.4457 37.7219C40.7561 37.9912 41.6415 38.5958 42.1705 39.4061C42.6501 40.1409 42.8007 40.9904 42.7665 41.7947C43.7165 41.7958 44.3786 41.4647 44.807 41.036C45.269 40.5738 45.4841 39.9755 45.4866 39.4672L36.2263 29.8312L36.9473 29.1383L46.2151 38.7821C47.1953 38.8926 47.9026 38.7928 48.4081 38.5886C48.9334 38.3764 49.2689 38.0407 49.4821 37.6468C49.9036 36.8677 49.8675 35.8114 49.6618 35.0057C43.1538 28.4932 42.4948 27.7212 41.7785 27.0066C41.4291 26.658 41.0661 26.323 40.0039 25.342L40.6824 24.6074C42.3179 26.1179 42.3243 26.1246 43.1526 26.9849C43.9701 27.834 45.5882 29.5145 50.3632 34.2929C51.1312 34.4659 51.7448 34.4345 52.2343 34.2894C52.7508 34.1364 53.1594 33.848 53.4829 33.4842C54.0748 32.8182 54.373 31.9057 54.4692 31.1872L42.2373 20.0285L36.8425 25.4262L36.7081 25.4598C35.653 25.7237 34.0612 25.8115 32.8649 25.0598C32.2485 24.6725 31.7578 24.0732 31.5138 23.216C31.2733 22.3712 31.2798 21.304 31.5925 19.9743L31.6231 19.8439L37.3659 13.7388C33.853 10.8241 30.3043 10.2347 27.2685 10.6802C24.114 11.1431 21.4916 12.7285 20.0452 14.0461ZM38.4362 14.0606L32.5363 20.3325C32.2791 21.4918 32.3029 22.3357 32.4756 22.9422C32.651 23.5586 32.9867 23.9553 33.397 24.2131C34.215 24.7271 35.4026 24.7279 36.3335 24.5208L42.2054 18.6458L54.9714 30.2918C59.8365 25.1082 58.6455 18.9544 56.9117 15.4233C56.6533 14.8968 56.3848 14.4339 56.1264 14.0467C48.6068 8.3104 41.2145 11.6571 38.4362 14.0606ZM56.557 13.119L60.9322 11.0761L38.8329 1.09036L14.944 11.0792L19.5903 13.1131C21.1931 11.7284 23.8926 10.1648 27.1233 9.69075C30.4521 9.20226 34.3243 9.87516 38.0948 13.0447C41.2774 10.5062 48.8561 7.37821 56.557 13.119ZM54.6998 33.5113L63.5081 30.2064V46.4275L38.5893 55.8223V46.2428L42.3951 42.7811C43.7697 42.8783 44.8177 42.4399 45.5143 41.7429C46.0681 41.1888 46.3837 40.4857 46.4653 39.809C47.395 39.8743 48.1608 39.767 48.7826 39.5158C49.5329 39.2128 50.0425 38.7123 50.3616 38.1227C50.8306 37.256 50.8741 36.2282 50.7522 35.3741C51.4088 35.4525 51.9964 35.4029 52.5184 35.2482C53.236 35.0356 53.7993 34.6334 54.2303 34.1485C54.4083 33.9482 54.5641 33.7336 54.6998 33.5113ZM41.7479 42.018C41.8255 41.2745 41.7162 40.5397 41.3331 39.9527C40.9555 39.3742 40.2643 38.8666 39.032 38.662L35.5236 42.5233C35.2618 43.3154 35.222 44.2393 35.5315 44.8586C35.6829 45.1616 35.9184 45.3965 36.2783 45.529C36.6292 45.6582 37.1359 45.7033 37.8533 45.5605L41.7479 42.018ZM37.5893 46.6147C36.9494 46.6905 36.3981 46.6387 35.9327 46.4674C35.3144 46.2397 34.8925 45.8169 34.637 45.3056C34.2987 44.6286 34.2553 43.811 34.3705 43.06C33.6684 43.275 33.0558 43.3493 32.5229 43.299C31.7547 43.2266 31.1772 42.8966 30.7749 42.4145C30.1795 41.7007 30.0115 40.7118 30.027 39.8733C29.3537 39.9665 28.7712 39.921 28.273 39.7526C27.6084 39.5279 27.1393 39.0994 26.8258 38.5875C26.3539 37.8165 26.2331 36.8584 26.2651 36.0623C24.3932 36.2053 23.1049 35.7051 22.269 34.9119C21.5016 34.1837 21.1689 33.2581 21.0842 32.5084L11.9193 30.131V45.6815L37.5893 55.8104V46.6147ZM22.0697 32.3144C22.1159 32.8806 22.3607 33.6203 22.9574 34.1865C23.5882 34.7851 24.6843 35.257 26.561 35.0282L30.1307 30.7422C30.2619 30.3259 30.3635 29.8374 30.3884 29.3545C30.4153 28.8327 30.3508 28.3538 30.1725 27.9811C30.0027 27.626 29.7226 27.3485 29.2527 27.207C28.7821 27.0653 28.0859 27.0504 27.0776 27.3037L22.0697 32.3144ZM30.8864 31.3975L27.2959 35.7084C27.2045 36.4523 27.2724 37.4017 27.6787 38.0653C27.8849 38.4021 28.1764 38.6643 28.5933 38.8052C28.9919 38.94 29.5438 38.9768 30.3029 38.8076L34.5783 33.8169C34.5513 33.3599 34.4204 32.4499 33.9672 31.7871C33.7177 31.4223 33.3835 31.1501 32.9171 31.0478C32.4574 30.9471 31.8042 30.9973 30.8864 31.3975ZM35.3394 34.4655L31.0538 39.4682C30.9649 40.271 31.0757 41.2139 31.5428 41.7739C31.7729 42.0496 32.1063 42.2553 32.6168 42.3034C33.1263 42.3515 33.8315 42.2433 34.7883 41.8456L38.3899 37.8816C38.3953 37.8599 38.4014 37.835 38.408 37.807C38.4358 37.6878 38.4706 37.5162 38.4975 37.3122C38.552 36.8977 38.5691 36.3801 38.4494 35.9013C38.3323 35.4326 38.0914 35.0226 37.6362 34.7546C37.1932 34.4939 36.4809 34.3284 35.3394 34.4655ZM56.8098 29.6541L74.0421 22.1719L65.0053 12.7824L58.0407 15.476C59.6033 18.9698 60.5727 24.6008 56.8098 29.6541ZM17.968 15.4567L11.5304 12.7837L1.80301 22.1688L19.1786 29.1897C16.1614 23.9536 16.5106 18.54 17.968 15.4567Z" fill="#E6E6E4"/>
<path d="M176.822 35.6426H178.16V42.9863L183.082 35.6426H184.967V44.7441H183.619V37.0684L178.482 44.7441H176.822V35.6426ZM183.688 32.9277C182.926 33.6829 181.998 34.0605 180.904 34.0605C179.811 34.0605 178.883 33.6829 178.121 32.9277L178.883 32.1855C179.495 32.7975 180.169 33.1035 180.904 33.1035C181.64 33.1035 182.314 32.7975 182.926 32.1855L183.688 32.9277Z" fill="#373737"/>
<path d="M170.885 33.8262H169.068V32H170.885V33.8262ZM172.701 44.7441H167.242V43.6016H169.303V36.7852H167.242V35.6426H170.65V43.6016H172.701V44.7441Z" fill="#373737"/>
<path d="M163.59 42.1465C163.59 43.0254 163.264 43.6797 162.613 44.1094C161.969 44.5326 161.041 44.7441 159.83 44.7441H154.986V35.6426H159.527C159.97 35.6426 160.406 35.6784 160.836 35.75C161.272 35.8151 161.66 35.9355 161.998 36.1113C162.337 36.2806 162.613 36.5182 162.828 36.8242C163.043 37.1302 163.15 37.5306 163.15 38.0254C163.15 38.4941 163.036 38.888 162.809 39.207C162.581 39.526 162.135 39.7702 161.471 39.9395C162.285 40.1283 162.841 40.4082 163.141 40.7793C163.44 41.1439 163.59 41.5996 163.59 42.1465ZM161.812 38.1035C161.812 37.8236 161.738 37.599 161.588 37.4297C161.438 37.2539 161.253 37.1204 161.031 37.0293C160.816 36.9316 160.576 36.8665 160.309 36.834C160.042 36.8014 159.781 36.7852 159.527 36.7852H156.324V39.4023H159.527C159.794 39.4023 160.064 39.3861 160.338 39.3535C160.611 39.321 160.859 39.2559 161.08 39.1582C161.301 39.054 161.477 38.9206 161.607 38.7578C161.744 38.5885 161.812 38.3704 161.812 38.1035ZM162.252 42.0879C162.252 41.554 162.034 41.1634 161.598 40.916C161.161 40.6686 160.566 40.5449 159.811 40.5449H156.324V43.6016H159.811C160.566 43.6016 161.161 43.4746 161.598 43.2207C162.034 42.9668 162.252 42.5892 162.252 42.0879Z" fill="#373737"/>
<path d="M152.926 40.2227C152.926 40.9323 152.812 41.5768 152.584 42.1562C152.363 42.7357 152.04 43.2337 151.617 43.6504C151.201 44.0605 150.699 44.3828 150.113 44.6172C149.527 44.8516 148.873 44.9688 148.15 44.9688C147.441 44.9688 146.793 44.8516 146.207 44.6172C145.621 44.3828 145.117 44.0605 144.693 43.6504C144.277 43.2337 143.954 42.7357 143.727 42.1562C143.505 41.5768 143.395 40.9323 143.395 40.2227C143.395 39.5326 143.505 38.8913 143.727 38.2988C143.954 37.6999 144.277 37.1921 144.693 36.7754C145.117 36.3522 145.621 36.0234 146.207 35.7891C146.793 35.5482 147.441 35.4277 148.15 35.4277C148.873 35.4277 149.527 35.5482 150.113 35.7891C150.699 36.0234 151.201 36.3522 151.617 36.7754C152.04 37.1921 152.363 37.6999 152.584 38.2988C152.812 38.8913 152.926 39.5326 152.926 40.2227ZM151.588 40.2227C151.588 39.7018 151.51 39.2233 151.354 38.7871C151.204 38.3444 150.979 37.957 150.68 37.625C150.38 37.293 150.016 37.0326 149.586 36.8438C149.163 36.6549 148.684 36.5605 148.15 36.5605C147.617 36.5605 147.135 36.6549 146.705 36.8438C146.282 37.0326 145.924 37.293 145.631 37.625C145.338 37.957 145.113 38.3444 144.957 38.7871C144.807 39.2233 144.732 39.7018 144.732 40.2227C144.732 40.7435 144.807 41.2253 144.957 41.668C145.113 42.1042 145.338 42.4818 145.631 42.8008C145.924 43.1198 146.282 43.3704 146.705 43.5527C147.135 43.735 147.617 43.8262 148.15 43.8262C148.684 43.8262 149.163 43.735 149.586 43.5527C150.016 43.3704 150.38 43.1198 150.68 42.8008C150.979 42.4818 151.204 42.1042 151.354 41.668C151.51 41.2253 151.588 40.7435 151.588 40.2227Z" fill="#373737"/>
<path d="M132.672 43.6016C132.978 43.5365 133.271 43.3607 133.551 43.0742C133.831 42.7878 134.075 42.3906 134.283 41.8828C134.492 41.375 134.658 40.7598 134.781 40.0371C134.911 39.3079 134.977 38.4714 134.977 37.5273V35.6426H139.947V43.6016H141.773V47.8594H140.572V44.7441H133.873V47.8594H132.672V43.6016ZM136.314 37.5273C136.314 38.2826 136.259 38.9922 136.148 39.6562C136.044 40.3138 135.904 40.903 135.729 41.4238C135.559 41.9447 135.364 42.3939 135.143 42.7715C134.921 43.1426 134.703 43.4193 134.488 43.6016H138.609V36.7852H136.314V37.5273Z" fill="#373737"/>
<path d="M123.092 40.6621C123.189 41.6257 123.541 42.3939 124.146 42.9668C124.752 43.5397 125.54 43.8262 126.51 43.8262C127.193 43.8262 127.802 43.6862 128.336 43.4062C128.87 43.1263 129.27 42.778 129.537 42.3613L130.475 43.0059C130.019 43.6439 129.475 44.1322 128.844 44.4707C128.212 44.8027 127.434 44.9688 126.51 44.9688C125.807 44.9688 125.162 44.8516 124.576 44.6172C123.99 44.3828 123.482 44.0573 123.053 43.6406C122.63 43.2174 122.301 42.7161 122.066 42.1367C121.832 41.5573 121.715 40.9128 121.715 40.2031C121.715 39.513 121.819 38.8783 122.027 38.2988C122.242 37.7129 122.548 37.2083 122.945 36.7852C123.349 36.3555 123.837 36.0234 124.41 35.7891C124.983 35.5482 125.624 35.4277 126.334 35.4277C127.109 35.4277 127.786 35.5579 128.365 35.8184C128.945 36.0788 129.426 36.4401 129.811 36.9023C130.201 37.3581 130.488 37.9049 130.67 38.543C130.859 39.181 130.953 39.8874 130.953 40.6621H123.092ZM129.537 39.5195C129.387 38.5234 129.026 37.7812 128.453 37.293C127.88 36.8047 127.174 36.5605 126.334 36.5605C125.904 36.5605 125.507 36.6322 125.143 36.7754C124.778 36.9121 124.456 37.1107 124.176 37.3711C123.896 37.6315 123.661 37.9473 123.473 38.3184C123.284 38.6829 123.163 39.0833 123.111 39.5195H129.537Z" fill="#373737"/>
<path d="M119.938 40.2031C119.938 40.9128 119.827 41.5573 119.605 42.1367C119.384 42.7161 119.072 43.2174 118.668 43.6406C118.271 44.0573 117.789 44.3828 117.223 44.6172C116.656 44.8516 116.021 44.9688 115.318 44.9688C114.837 44.9688 114.368 44.8809 113.912 44.7051C113.463 44.5293 113.043 44.2689 112.652 43.9238V48.3867H111.314V35.6426H112.652V36.4824C113.479 35.7793 114.368 35.4277 115.318 35.4277C116.021 35.4277 116.656 35.5449 117.223 35.7793C117.789 36.0072 118.271 36.3359 118.668 36.7656C119.072 37.1888 119.384 37.6966 119.605 38.2891C119.827 38.875 119.938 39.513 119.938 40.2031ZM118.6 40.2031C118.6 39.6953 118.528 39.2201 118.385 38.7773C118.248 38.3281 118.04 37.9408 117.76 37.6152C117.48 37.2897 117.135 37.0326 116.725 36.8438C116.321 36.6549 115.852 36.5605 115.318 36.5605C114.811 36.5605 114.335 36.6549 113.893 36.8438C113.456 37.0326 113.043 37.3385 112.652 37.7617V42.6445C113.043 43.0677 113.456 43.3704 113.893 43.5527C114.335 43.735 114.811 43.8262 115.318 43.8262C115.852 43.8262 116.321 43.7318 116.725 43.543C117.135 43.3542 117.48 43.097 117.76 42.7715C118.04 42.446 118.248 42.0651 118.385 41.6289C118.528 41.1862 118.6 40.7109 118.6 40.2031Z" fill="#373737"/>
<path d="M101.256 40.6621C101.354 41.6257 101.705 42.3939 102.311 42.9668C102.916 43.5397 103.704 43.8262 104.674 43.8262C105.357 43.8262 105.966 43.6862 106.5 43.4062C107.034 43.1263 107.434 42.778 107.701 42.3613L108.639 43.0059C108.183 43.6439 107.639 44.1322 107.008 44.4707C106.376 44.8027 105.598 44.9688 104.674 44.9688C103.971 44.9688 103.326 44.8516 102.74 44.6172C102.154 44.3828 101.646 44.0573 101.217 43.6406C100.794 43.2174 100.465 42.7161 100.23 42.1367C99.9961 41.5573 99.8789 40.9128 99.8789 40.2031C99.8789 39.513 99.9831 38.8783 100.191 38.2988C100.406 37.7129 100.712 37.2083 101.109 36.7852C101.513 36.3555 102.001 36.0234 102.574 35.7891C103.147 35.5482 103.788 35.4277 104.498 35.4277C105.273 35.4277 105.95 35.5579 106.529 35.8184C107.109 36.0788 107.59 36.4401 107.975 36.9023C108.365 37.3581 108.652 37.9049 108.834 38.543C109.023 39.181 109.117 39.8874 109.117 40.6621H101.256ZM107.701 39.5195C107.551 38.5234 107.19 37.7812 106.617 37.293C106.044 36.8047 105.338 36.5605 104.498 36.5605C104.068 36.5605 103.671 36.6322 103.307 36.7754C102.942 36.9121 102.62 37.1107 102.34 37.3711C102.06 37.6315 101.826 37.9473 101.637 38.3184C101.448 38.6829 101.327 39.0833 101.275 39.5195H107.701Z" fill="#373737"/>
<path d="M97.623 44.7441H96.2754V36.7852H90.8164V44.7441H89.4785V35.6426H97.623V44.7441Z" fill="#373737"/>
<path d="M165.406 19.2832C165.406 18.7103 165.549 18.2318 165.836 17.8477C166.122 17.457 166.497 17.151 166.959 16.9297C167.428 16.7018 167.962 16.5391 168.561 16.4414C169.166 16.3372 169.781 16.2852 170.406 16.2852C170.647 16.2852 170.862 16.2884 171.051 16.2949C171.246 16.3014 171.428 16.3112 171.598 16.3242C171.773 16.3372 171.949 16.3535 172.125 16.373C172.301 16.3926 172.493 16.4154 172.701 16.4414V15.7871C172.701 15.3444 172.604 14.9798 172.408 14.6934C172.219 14.4069 171.985 14.1823 171.705 14.0195C171.425 13.8503 171.132 13.7331 170.826 13.668C170.52 13.5964 170.26 13.5605 170.045 13.5605C169.368 13.5605 168.743 13.6517 168.17 13.834C167.597 14.0163 167.063 14.2604 166.568 14.5664L165.963 13.5605C166.51 13.2285 167.122 12.9583 167.799 12.75C168.482 12.5352 169.231 12.4277 170.045 12.4277C170.54 12.4277 171.025 12.4928 171.5 12.623C171.982 12.7467 172.411 12.9421 172.789 13.209C173.173 13.4694 173.479 13.8145 173.707 14.2441C173.935 14.6738 174.049 15.1882 174.049 15.7871V21.7441H172.701V20.2207C172.467 20.5137 172.2 20.7708 171.9 20.9922C171.607 21.2135 171.298 21.3958 170.973 21.5391C170.647 21.6758 170.322 21.7799 169.996 21.8516C169.671 21.9297 169.361 21.9688 169.068 21.9688C167.864 21.9688 166.952 21.7376 166.334 21.2754C165.715 20.8132 165.406 20.1491 165.406 19.2832ZM169.068 20.8262C169.628 20.8262 170.13 20.7448 170.572 20.582C171.021 20.4128 171.402 20.2044 171.715 19.957C172.027 19.7096 172.268 19.446 172.438 19.166C172.613 18.8861 172.701 18.6322 172.701 18.4043V17.5449C172.265 17.4798 171.845 17.444 171.441 17.4375C171.044 17.431 170.699 17.4277 170.406 17.4277C169.924 17.4277 169.459 17.4603 169.01 17.5254C168.567 17.5905 168.18 17.6979 167.848 17.8477C167.516 17.9909 167.249 18.1797 167.047 18.4141C166.845 18.6484 166.744 18.9382 166.744 19.2832C166.744 19.6673 166.93 20.0221 167.301 20.3477C167.678 20.6667 168.268 20.8262 169.068 20.8262Z" fill="#373737"/>
<path d="M154.986 12.6426H163.609V13.7852H156.324V21.7441H154.986V12.6426Z" fill="#373737"/>
<path d="M152.926 17.2227C152.926 17.9323 152.812 18.5768 152.584 19.1562C152.363 19.7357 152.04 20.2337 151.617 20.6504C151.201 21.0605 150.699 21.3828 150.113 21.6172C149.527 21.8516 148.873 21.9688 148.15 21.9688C147.441 21.9688 146.793 21.8516 146.207 21.6172C145.621 21.3828 145.117 21.0605 144.693 20.6504C144.277 20.2337 143.954 19.7357 143.727 19.1562C143.505 18.5768 143.395 17.9323 143.395 17.2227C143.395 16.5326 143.505 15.8913 143.727 15.2988C143.954 14.6999 144.277 14.1921 144.693 13.7754C145.117 13.3522 145.621 13.0234 146.207 12.7891C146.793 12.5482 147.441 12.4277 148.15 12.4277C148.873 12.4277 149.527 12.5482 150.113 12.7891C150.699 13.0234 151.201 13.3522 151.617 13.7754C152.04 14.1921 152.363 14.6999 152.584 15.2988C152.812 15.8913 152.926 16.5326 152.926 17.2227ZM151.588 17.2227C151.588 16.7018 151.51 16.2233 151.354 15.7871C151.204 15.3444 150.979 14.957 150.68 14.625C150.38 14.293 150.016 14.0326 149.586 13.8438C149.163 13.6549 148.684 13.5605 148.15 13.5605C147.617 13.5605 147.135 13.6549 146.705 13.8438C146.282 14.0326 145.924 14.293 145.631 14.625C145.338 14.957 145.113 15.3444 144.957 15.7871C144.807 16.2233 144.732 16.7018 144.732 17.2227C144.732 17.7435 144.807 18.2253 144.957 18.668C145.113 19.1042 145.338 19.4818 145.631 19.8008C145.924 20.1198 146.282 20.3704 146.705 20.5527C147.135 20.735 147.617 20.8262 148.15 20.8262C148.684 20.8262 149.163 20.735 149.586 20.5527C150.016 20.3704 150.38 20.1198 150.68 19.8008C150.979 19.4818 151.204 19.1042 151.354 18.668C151.51 18.2253 151.588 17.7435 151.588 17.2227Z" fill="#373737"/>
<path d="M141.295 21.7441H139.947V14.5273L137.711 19.2441H136.754L134.488 14.5273V21.7441H133.15V12.6426H134.889L137.232 17.3887L139.557 12.6426H141.295V21.7441Z" fill="#373737"/>
<path d="M131.09 17.2227C131.09 17.9323 130.976 18.5768 130.748 19.1562C130.527 19.7357 130.204 20.2337 129.781 20.6504C129.365 21.0605 128.863 21.3828 128.277 21.6172C127.691 21.8516 127.037 21.9688 126.314 21.9688C125.605 21.9688 124.957 21.8516 124.371 21.6172C123.785 21.3828 123.281 21.0605 122.857 20.6504C122.441 20.2337 122.118 19.7357 121.891 19.1562C121.669 18.5768 121.559 17.9323 121.559 17.2227C121.559 16.5326 121.669 15.8913 121.891 15.2988C122.118 14.6999 122.441 14.1921 122.857 13.7754C123.281 13.3522 123.785 13.0234 124.371 12.7891C124.957 12.5482 125.605 12.4277 126.314 12.4277C127.037 12.4277 127.691 12.5482 128.277 12.7891C128.863 13.0234 129.365 13.3522 129.781 13.7754C130.204 14.1921 130.527 14.6999 130.748 15.2988C130.976 15.8913 131.09 16.5326 131.09 17.2227ZM129.752 17.2227C129.752 16.7018 129.674 16.2233 129.518 15.7871C129.368 15.3444 129.143 14.957 128.844 14.625C128.544 14.293 128.18 14.0326 127.75 13.8438C127.327 13.6549 126.848 13.5605 126.314 13.5605C125.781 13.5605 125.299 13.6549 124.869 13.8438C124.446 14.0326 124.088 14.293 123.795 14.625C123.502 14.957 123.277 15.3444 123.121 15.7871C122.971 16.2233 122.896 16.7018 122.896 17.2227C122.896 17.7435 122.971 18.2253 123.121 18.668C123.277 19.1042 123.502 19.4818 123.795 19.8008C124.088 20.1198 124.446 20.3704 124.869 20.5527C125.299 20.735 125.781 20.8262 126.314 20.8262C126.848 20.8262 127.327 20.735 127.75 20.5527C128.18 20.3704 128.544 20.1198 128.844 19.8008C129.143 19.4818 129.368 19.1042 129.518 18.668C129.674 18.2253 129.752 17.7435 129.752 17.2227Z" fill="#373737"/>
<path d="M119.459 21.7441H118.111V13.7852H112.652V21.7441H111.314V12.6426H119.459V21.7441Z" fill="#373737"/>
<path d="M109.254 17.2227C109.254 17.9323 109.14 18.5768 108.912 19.1562C108.691 19.7357 108.368 20.2337 107.945 20.6504C107.529 21.0605 107.027 21.3828 106.441 21.6172C105.855 21.8516 105.201 21.9688 104.479 21.9688C103.769 21.9688 103.121 21.8516 102.535 21.6172C101.949 21.3828 101.445 21.0605 101.021 20.6504C100.605 20.2337 100.283 19.7357 100.055 19.1562C99.8333 18.5768 99.7227 17.9323 99.7227 17.2227C99.7227 16.5326 99.8333 15.8913 100.055 15.2988C100.283 14.6999 100.605 14.1921 101.021 13.7754C101.445 13.3522 101.949 13.0234 102.535 12.7891C103.121 12.5482 103.769 12.4277 104.479 12.4277C105.201 12.4277 105.855 12.5482 106.441 12.7891C107.027 13.0234 107.529 13.3522 107.945 13.7754C108.368 14.1921 108.691 14.6999 108.912 15.2988C109.14 15.8913 109.254 16.5326 109.254 17.2227ZM107.916 17.2227C107.916 16.7018 107.838 16.2233 107.682 15.7871C107.532 15.3444 107.307 14.957 107.008 14.625C106.708 14.293 106.344 14.0326 105.914 13.8438C105.491 13.6549 105.012 13.5605 104.479 13.5605C103.945 13.5605 103.463 13.6549 103.033 13.8438C102.61 14.0326 102.252 14.293 101.959 14.625C101.666 14.957 101.441 15.3444 101.285 15.7871C101.135 16.2233 101.061 16.7018 101.061 17.2227C101.061 17.7435 101.135 18.2253 101.285 18.668C101.441 19.1042 101.666 19.4818 101.959 19.8008C102.252 20.1198 102.61 20.3704 103.033 20.5527C103.463 20.735 103.945 20.8262 104.479 20.8262C105.012 20.8262 105.491 20.735 105.914 20.5527C106.344 20.3704 106.708 20.1198 107.008 19.8008C107.307 19.4818 107.532 19.1042 107.682 18.668C107.838 18.2253 107.916 17.7435 107.916 17.2227Z" fill="#373737"/>
<path d="M89 20.6016C89.3711 20.2826 89.6999 19.9408 89.9863 19.5762C90.2728 19.2051 90.5137 18.7135 90.709 18.1016C90.9043 17.4896 91.0508 16.7116 91.1484 15.7676C91.2526 14.8171 91.3047 13.6094 91.3047 12.1445V9H96.2754V20.6016H98.1016V24.8594H96.9004V21.7441H90.2012V24.8594H89V20.6016ZM92.6426 12.1445C92.6426 13.2904 92.6035 14.3027 92.5254 15.1816C92.4538 16.0605 92.3366 16.8418 92.1738 17.5254C92.0176 18.2025 91.8092 18.7917 91.5488 19.293C91.2884 19.7943 90.9727 20.2305 90.6016 20.6016H94.9375V10.1426H92.6426V12.1445Z" fill="#373737"/>
</svg>
