<svg width="76" height="58" viewBox="0 0 76 58" fill="none" xmlns="http://www.w3.org/2000/svg">
<path d="M62.2284 11.5235L56.5939 14.1544C56.8801 14.5754 57.1762 15.0816 57.4591 15.6577L65.2335 12.651L75 22.7987L55.0914 31.443V33.3221L64.1066 29.9396V47.2282L38.1878 57L11.5178 46.4765V29.9396L21.6599 32.5705L20.533 30.6913L1 22.7987L11.5178 12.651L18.759 15.6577C19.0964 15.0551 19.4501 14.5484 19.7817 14.1544L13.7716 11.5235L38.9391 1L62.2284 11.5235Z" fill="#BA1E1E"/>
<path d="M56.5939 14.1544L62.2284 11.5235L38.9391 1L13.7716 11.5235L19.7817 14.1544M56.5939 14.1544C48.7807 8.14094 41.0677 11.6488 38.1878 14.1544M56.5939 14.1544C56.8801 14.5754 57.1762 15.0816 57.4591 15.6577M19.7817 14.1544C22.7868 11.3982 30.6751 7.5396 38.1878 14.1544M19.7817 14.1544C19.4501 14.5484 19.0964 15.0551 18.759 15.6577M38.1878 14.1544L32.1777 20.5436C30.9756 25.655 34.6819 25.9306 36.6853 25.4295L42.3198 19.7919L55.0914 31.443M55.0914 31.443C54.9662 33.0716 53.8142 36.1034 50.2081 35.2013M55.0914 31.443V33.3221L64.1066 29.9396V47.2282L38.1878 57M55.0914 31.443L75 22.7987L65.2335 12.651L57.4591 15.6577M55.0914 31.443C60.5537 25.9777 59.2805 19.3673 57.4591 15.6577M50.2081 35.2013C40.4416 25.4295 43.6971 28.4362 40.4416 25.4295M50.2081 35.2013C50.709 36.9553 50.5838 40.3128 46.0761 39.7114M46.0761 39.7114L36.6853 29.9396M46.0761 39.7114C46.2014 41.0895 45.0244 43.0188 42.3198 42.7181M42.3198 42.7181C42.5702 40.9642 41.9442 38.9597 38.9391 38.5839M42.3198 42.7181L38.1878 46.4765M38.9391 38.5839C38.9391 38.5839 40.4416 33.698 35.1827 34.4497M38.9391 38.5839L35.1827 42.7181M35.1827 34.4497C35.1827 33.698 34.8071 29.5638 30.6751 31.443M35.1827 34.4497L30.6751 39.7114M30.6751 31.443C31.3012 29.5638 31.4264 26.106 26.9188 27.3087L21.6599 32.5705M30.6751 31.443L26.9188 35.953M21.6599 32.5705C21.6599 33.9485 22.7117 36.5544 26.9188 35.953M21.6599 32.5705L11.5178 29.9396V46.4765L38.1878 57M21.6599 32.5705L20.533 30.6913M26.9188 35.953C26.6684 37.5817 27.069 40.6134 30.6751 39.7114M30.6751 39.7114C30.4247 41.4653 30.9756 44.5221 35.1827 42.7181M35.1827 42.7181C34.5567 44.472 34.8071 47.2282 38.1878 46.4765M38.1878 46.4765V57M20.533 30.6913L1 22.7987L11.5178 12.651L18.759 15.6577M20.533 30.6913C16.5209 24.9207 17.0583 18.695 18.759 15.6577" stroke="#E6E6E4"/>
</svg>
