<svg width="40" height="40" viewBox="0 0 40 40" fill="none" xmlns="http://www.w3.org/2000/svg">
<path d="M17.566 33.656C20.7478 33.6601 23.8595 32.7209 26.5077 30.957C29.1558 29.1931 31.2216 26.6837 32.444 23.746C33.6655 20.8084 33.9874 17.5742 33.3689 14.4535C32.7504 11.3327 31.2195 8.46578 28.97 6.21599C26.721 3.9659 23.8554 2.43303 20.7354 1.81111C17.6154 1.1892 14.381 1.50616 11.4411 2.72193C8.50124 3.9377 5.98773 5.99772 4.21829 8.64162C2.44885 11.2855 1.5029 14.3946 1.5 17.576C1.5 21.838 3.192 25.924 6.204 28.938C9.21646 31.953 13.302 33.6498 17.564 33.656M28.976 28.982L38.5 38.5" stroke="black" stroke-width="1.5" stroke-linecap="round" stroke-linejoin="round"/>
</svg>
