<svg width="16" height="10" viewBox="0 0 16 10" fill="none" xmlns="http://www.w3.org/2000/svg">
<path d="M8.77776 8.628L14.8718 1.859C14.9369 1.78454 14.9793 1.69299 14.9941 1.59517C15.0088 1.49736 14.9953 1.39736 14.955 1.30701C14.9147 1.21666 14.8494 1.13974 14.7668 1.08533C14.6841 1.03093 14.5877 1.00132 14.4888 1H1.51276C1.41384 1.00156 1.31742 1.03137 1.23488 1.0859C1.15233 1.14043 1.08709 1.21742 1.04684 1.30779C1.0066 1.39817 0.993017 1.49816 1.00771 1.596C1.0224 1.69383 1.06474 1.78543 1.12976 1.86L7.22375 8.67C7.32401 8.77752 7.44597 8.86249 7.58156 8.91929C7.71716 8.97609 7.86327 9.0034 8.01023 8.99943C8.15718 8.99546 8.30161 8.96029 8.43393 8.89625C8.56626 8.83222 8.68346 8.74078 8.77776 8.628Z" stroke="#212121" stroke-width="1.5" stroke-linecap="round" stroke-linejoin="round"/>
</svg>
