<svg width="38" height="38" viewBox="0 0 38 38" fill="none" xmlns="http://www.w3.org/2000/svg">
<path d="M18.0625 5.25V1.5C18.0625 1.25136 18.1613 1.0129 18.3371 0.837087C18.5129 0.661272 18.7514 0.5625 19 0.5625C19.2486 0.5625 19.4871 0.661272 19.6629 0.837087C19.8387 1.0129 19.9375 1.25136 19.9375 1.5V5.25C19.9375 5.49864 19.8387 5.7371 19.6629 5.91291C19.4871 6.08873 19.2486 6.1875 19 6.1875C18.7514 6.1875 18.5129 6.08873 18.3371 5.91291C18.1613 5.7371 18.0625 5.49864 18.0625 5.25ZM28.6875 19C28.6875 20.916 28.1193 22.789 27.0549 24.3821C25.9904 25.9752 24.4774 27.2169 22.7072 27.9501C20.9371 28.6833 18.9893 28.8752 17.1101 28.5014C15.2309 28.1276 13.5047 27.2049 12.1499 25.8501C10.7951 24.4953 9.87244 22.7691 9.49864 20.8899C9.12485 19.0107 9.31669 17.0629 10.0499 15.2928C10.7831 13.5226 12.0248 12.0096 13.6179 10.9451C15.211 9.88066 17.084 9.3125 19 9.3125C21.5684 9.3154 24.0308 10.337 25.8469 12.1531C27.663 13.9692 28.6846 16.4316 28.6875 19ZM26.8125 19C26.8125 17.4548 26.3543 15.9444 25.4959 14.6596C24.6374 13.3748 23.4173 12.3735 21.9897 11.7822C20.5622 11.1909 18.9913 11.0362 17.4759 11.3376C15.9604 11.6391 14.5683 12.3831 13.4757 13.4757C12.3831 14.5683 11.6391 15.9604 11.3376 17.4759C11.0362 18.9913 11.1909 20.5622 11.7822 21.9897C12.3735 23.4173 13.3748 24.6374 14.6596 25.4959C15.9444 26.3543 17.4548 26.8125 19 26.8125C21.0712 26.81 23.0569 25.9861 24.5215 24.5215C25.9861 23.0569 26.81 21.0712 26.8125 19ZM8.3375 9.6625C8.42333 9.75461 8.52683 9.82849 8.64183 9.87973C8.75683 9.93097 8.88097 9.95852 9.00685 9.96074C9.13273 9.96296 9.25776 9.93981 9.3745 9.89265C9.49123 9.8455 9.59727 9.77532 9.6863 9.6863C9.77532 9.59727 9.8455 9.49123 9.89265 9.3745C9.93981 9.25776 9.96296 9.13273 9.96074 9.00685C9.95852 8.88097 9.93097 8.75683 9.87973 8.64183C9.82849 8.52683 9.75461 8.42333 9.6625 8.3375L7.1625 5.8375C6.98478 5.6719 6.74972 5.58175 6.50685 5.58603C6.26397 5.59032 6.03224 5.68871 5.86047 5.86047C5.68871 6.03224 5.59032 6.26397 5.58603 6.50685C5.58175 6.74972 5.6719 6.98478 5.8375 7.1625L8.3375 9.6625ZM8.3375 28.3375L5.8375 30.8375C5.74539 30.9233 5.67151 31.0268 5.62027 31.1418C5.56903 31.2568 5.54148 31.381 5.53926 31.5068C5.53704 31.6327 5.5602 31.7578 5.60735 31.8745C5.6545 31.9912 5.72468 32.0973 5.8137 32.1863C5.90273 32.2753 6.00877 32.3455 6.1255 32.3927C6.24224 32.4398 6.36727 32.463 6.49315 32.4607C6.61903 32.4585 6.74317 32.431 6.85817 32.3797C6.97317 32.3285 7.07667 32.2546 7.1625 32.1625L9.6625 29.6625C9.75461 29.5767 9.82849 29.4732 9.87973 29.3582C9.93097 29.2432 9.95852 29.119 9.96074 28.9932C9.96296 28.8673 9.93981 28.7422 9.89265 28.6255C9.8455 28.5088 9.77532 28.4027 9.6863 28.3137C9.59727 28.2247 9.49123 28.1545 9.3745 28.1073C9.25776 28.0602 9.13273 28.037 9.00685 28.0393C8.88097 28.0415 8.75683 28.069 8.64183 28.1203C8.52683 28.1715 8.42333 28.2454 8.3375 28.3375ZM29 9.9375C29.2486 9.93728 29.4869 9.83837 29.6625 9.6625L32.1625 7.1625C32.3281 6.98478 32.4183 6.74972 32.414 6.50685C32.4097 6.26397 32.3113 6.03224 32.1395 5.86047C31.9678 5.68871 31.736 5.59032 31.4932 5.58603C31.2503 5.58175 31.0152 5.6719 30.8375 5.8375L28.3375 8.3375C28.2066 8.46861 28.1174 8.63558 28.0813 8.81733C28.0452 8.99908 28.0638 9.18745 28.1346 9.35865C28.2055 9.52986 28.3256 9.67622 28.4796 9.77924C28.6336 9.88227 28.8147 9.93734 29 9.9375ZM29.6625 28.3375C29.4848 28.1719 29.2497 28.0817 29.0068 28.086C28.764 28.0903 28.5322 28.1887 28.3605 28.3605C28.1887 28.5322 28.0903 28.764 28.086 29.0068C28.0817 29.2497 28.1719 29.4848 28.3375 29.6625L30.8375 32.1625C31.0152 32.3281 31.2503 32.4183 31.4932 32.414C31.736 32.4097 31.9678 32.3113 32.1395 32.1395C32.3113 31.9678 32.4097 31.736 32.414 31.4932C32.4183 31.2503 32.3281 31.0152 32.1625 30.8375L29.6625 28.3375ZM6.1875 19C6.1875 18.7514 6.08873 18.5129 5.91291 18.3371C5.7371 18.1613 5.49864 18.0625 5.25 18.0625H1.5C1.25136 18.0625 1.0129 18.1613 0.837087 18.3371C0.661272 18.5129 0.5625 18.7514 0.5625 19C0.5625 19.2486 0.661272 19.4871 0.837087 19.6629C1.0129 19.8387 1.25136 19.9375 1.5 19.9375H5.25C5.49864 19.9375 5.7371 19.8387 5.91291 19.6629C6.08873 19.4871 6.1875 19.2486 6.1875 19ZM19 31.8125C18.7514 31.8125 18.5129 31.9113 18.3371 32.0871C18.1613 32.2629 18.0625 32.5014 18.0625 32.75V36.5C18.0625 36.7486 18.1613 36.9871 18.3371 37.1629C18.5129 37.3387 18.7514 37.4375 19 37.4375C19.2486 37.4375 19.4871 37.3387 19.6629 37.1629C19.8387 36.9871 19.9375 36.7486 19.9375 36.5V32.75C19.9375 32.5014 19.8387 32.2629 19.6629 32.0871C19.4871 31.9113 19.2486 31.8125 19 31.8125ZM36.5 18.0625H32.75C32.5014 18.0625 32.2629 18.1613 32.0871 18.3371C31.9113 18.5129 31.8125 18.7514 31.8125 19C31.8125 19.2486 31.9113 19.4871 32.0871 19.6629C32.2629 19.8387 32.5014 19.9375 32.75 19.9375H36.5C36.7486 19.9375 36.9871 19.8387 37.1629 19.6629C37.3387 19.4871 37.4375 19.2486 37.4375 19C37.4375 18.7514 37.3387 18.5129 37.1629 18.3371C36.9871 18.1613 36.7486 18.0625 36.5 18.0625Z" fill="#212121"/>
</svg>
